%TF.GenerationSoftware,KiCad,Pcbnew,7.0.7*%
%TF.CreationDate,2023-10-28T12:22:14-07:00*%
%TF.ProjectId,MF50,4d463530-2e6b-4696-9361-645f70636258,rev?*%
%TF.SameCoordinates,Original*%
%TF.FileFunction,Soldermask,Bot*%
%TF.FilePolarity,Negative*%
%FSLAX46Y46*%
G04 Gerber Fmt 4.6, Leading zero omitted, Abs format (unit mm)*
G04 Created by KiCad (PCBNEW 7.0.7) date 2023-10-28 12:22:14*
%MOMM*%
%LPD*%
G01*
G04 APERTURE LIST*
%ADD10C,2.700000*%
%ADD11C,5.000000*%
%ADD12R,1.800000X1.800000*%
%ADD13C,1.800000*%
%ADD14R,1.000000X1.000000*%
%TA.AperFunction,Profile*%
%ADD15C,0.100000*%
%TD*%
G04 APERTURE END LIST*
D10*
%TO.C,H4*%
X249500000Y-120085000D03*
X249500000Y-120835000D03*
X249500000Y-121835000D03*
X249500000Y-122835000D03*
X249500000Y-123835000D03*
D11*
X249500000Y-126235000D03*
%TD*%
D10*
%TO.C,H3*%
X315480000Y-120085000D03*
X315480000Y-120835000D03*
X315480000Y-121835000D03*
X315480000Y-122835000D03*
X315480000Y-123835000D03*
D11*
X315480000Y-126235000D03*
%TD*%
D12*
%TO.C,J1*%
X219210000Y-53695000D03*
X223170000Y-53695000D03*
D13*
X227130000Y-53695000D03*
X231090000Y-53695000D03*
X235050000Y-53695000D03*
X239010000Y-53695000D03*
X242970000Y-53695000D03*
X246930000Y-53695000D03*
X250890000Y-53695000D03*
X254850000Y-53695000D03*
D12*
X258810000Y-53695000D03*
X262770000Y-53695000D03*
D13*
X266730000Y-53695000D03*
X270690000Y-53695000D03*
X274650000Y-53695000D03*
X278610000Y-53695000D03*
X282570000Y-53695000D03*
X286530000Y-53695000D03*
X290490000Y-53695000D03*
X294450000Y-53665000D03*
X298410000Y-53665000D03*
X302370000Y-53665000D03*
X306330000Y-53665000D03*
X310290000Y-53665000D03*
X314250000Y-53665000D03*
X318210000Y-53665000D03*
X322170000Y-53665000D03*
X326130000Y-53665000D03*
D12*
X330090000Y-53665000D03*
X334050000Y-53665000D03*
%TD*%
D14*
%TO.C,TP9*%
X212370000Y-156000000D03*
%TD*%
%TO.C,TP14*%
X363380000Y-156000000D03*
%TD*%
%TO.C,TP13*%
X315460000Y-170580000D03*
%TD*%
%TO.C,TP10*%
X246000000Y-170580000D03*
%TD*%
%TO.C,TP12*%
X311000000Y-165000000D03*
%TD*%
%TO.C,TP11*%
X278350000Y-156000000D03*
%TD*%
%TO.C,TP15*%
X397000000Y-170580000D03*
%TD*%
D15*
X402740000Y-50980000D02*
X176800000Y-50980000D01*
X176800000Y-176300000D02*
X402740000Y-176300000D01*
X176800000Y-176300000D02*
X176800000Y-50980000D01*
X402740000Y-176300000D02*
X402740000Y-50980000D01*
M02*
