M48
; DRILL file {KiCad 7.0.7} date Sat Oct 28 12:22:16 2023
; FORMAT={-:-/ absolute / metric / decimal}
; #@! TF.CreationDate,2023-10-28T12:22:16-07:00
; #@! TF.GenerationSoftware,Kicad,Pcbnew,7.0.7
; #@! TF.FileFunction,Plated,1,2,PTH
FMAT,2
METRIC
; #@! TA.AperFunction,Plated,PTH,ComponentDrill
T1C1.200
%
G90
G05
T1
X219.21Y-53.695
X223.17Y-53.695
X227.13Y-53.695
X231.09Y-53.695
X235.05Y-53.695
X239.01Y-53.695
X242.97Y-53.695
X246.93Y-53.695
X250.89Y-53.695
X254.85Y-53.695
X258.81Y-53.695
X262.77Y-53.695
X266.73Y-53.695
X270.69Y-53.695
X274.65Y-53.695
X278.61Y-53.695
X282.57Y-53.695
X286.53Y-53.695
X290.49Y-53.695
X294.45Y-53.665
X298.41Y-53.665
X302.37Y-53.665
X306.33Y-53.665
X310.29Y-53.665
X314.25Y-53.665
X318.21Y-53.665
X322.17Y-53.665
X326.13Y-53.665
X330.09Y-53.665
X334.05Y-53.665
T0
M30
